<svg width="512" height="360" viewBox="0 0 512 360" fill="none" xmlns="http://www.w3.org/2000/svg">
<path d="M507.49 25.7209L352.211 180L507.49 334.279C510.297 328.412 512 321.926 512 315V44.9999C512 38.0729 510.297 31.5879 507.49 25.7209Z" fill="black"/>
<path d="M467 0H45.0002C38.0732 0 31.5882 1.703 25.7212 4.51L224.184 201.973C241.732 219.521 270.268 219.521 287.816 201.973L486.279 4.51C480.412 1.703 473.927 0 467 0Z" fill="black"/>
<path d="M4.51 25.7209C1.703 31.5879 0 38.0729 0 44.9999V315C0 321.927 1.703 328.413 4.51 334.279L159.789 180L4.51 25.7209Z" fill="black"/>
<path d="M331 201.211L309.027 223.184C279.788 252.423 232.211 252.423 202.972 223.184L181 201.211L25.7212 355.49C31.5882 358.297 38.0732 360 45.0002 360H467C473.927 360 480.412 358.297 486.279 355.49L331 201.211Z" fill="black"/>
</svg>
