<svg width="384" height="479" viewBox="0 0 384 479" fill="none" xmlns="http://www.w3.org/2000/svg">
<path d="M380.501 200.695C382.277 189.457 383.385 177.135 383.664 163.318C383.557 104.072 355.196 83.1081 349.739 73.2801C357.776 28.3901 348.408 7.97108 344.051 0.981077C327.981 -4.72292 288.141 15.7031 266.373 30.0821C230.882 19.6931 155.879 20.7071 127.752 32.7711C75.8561 -4.38892 48.4081 1.27708 48.4081 1.27708C48.4081 1.27708 30.6631 33.0971 43.7171 79.6481C26.6421 101.407 13.9151 116.791 13.9151 157.597C13.9151 167.37 14.5221 176.605 15.5521 185.49C30.2571 262.808 91.5221 296.164 151.702 301.916C142.646 308.797 131.774 321.819 130.27 336.908C118.891 344.265 96.0021 346.697 78.2031 341.101C53.2641 333.221 43.7171 283.835 6.37009 290.88C-1.71091 292.392 -0.104904 297.722 6.8931 302.266C18.2711 309.646 28.9871 318.82 37.2471 338.451C43.5911 353.523 56.9341 380.433 99.1201 380.433C115.867 380.433 127.597 378.454 127.597 378.454C127.597 378.454 127.916 416.86 127.916 431.839C127.916 449.077 104.652 453.917 104.652 462.187C104.652 465.476 112.352 465.788 118.54 465.788C130.769 465.788 156.213 455.602 156.213 437.685C156.213 423.448 156.44 375.604 156.44 367.225C156.44 348.918 166.251 343.089 166.251 343.089C166.251 343.089 167.452 440.816 163.89 453.918C159.713 469.326 152.146 467.137 152.146 473.994C152.146 484.227 182.735 476.496 192.881 454.097C200.73 436.602 197.215 340.766 197.215 340.766L205.398 340.588C205.398 340.588 205.492 384.48 205.21 404.532C204.915 425.301 202.772 451.557 215.108 463.949C223.205 472.099 248.011 486.4 248.011 473.331C248.011 465.757 230.64 459.498 230.64 438.978V344.45C241.193 344.45 243.374 375.522 243.374 375.522L247.178 433.249C247.178 433.249 244.652 454.314 269.934 463.105C278.859 466.231 297.952 467.081 298.847 461.834C299.744 456.574 275.857 448.796 275.63 432.492C275.507 422.562 276.075 416.75 276.075 373.558C276.075 330.39 270.276 314.421 250.068 301.695C308.669 295.681 369.536 269.51 380.501 200.695Z" fill="black"/>
</svg>
