<svg width="393" height="376" viewBox="0 0 393 376" fill="none" xmlns="http://www.w3.org/2000/svg">
<path d="M85.5999 375.667H0.266602V119.667H85.5999V375.667ZM42.9503 85.5335C19.3471 85.5335 0.266602 66.4018 0.266602 42.8498C0.266602 19.2978 19.3813 0.200195 42.9503 0.200195C66.4682 0.200195 85.5999 19.3319 85.5999 42.8498C85.5999 66.4018 66.4682 85.5335 42.9503 85.5335ZM392.8 375.667H310.76V251.08C310.76 221.367 310.197 183.155 268.111 183.155C225.393 183.155 218.822 215.513 218.822 248.93V375.667H136.8V119.479H215.546V154.483H216.655C227.612 134.344 254.389 113.113 294.325 113.113C377.44 113.113 392.8 166.174 392.8 235.157C392.8 235.157 392.8 375.667 392.8 375.667Z" fill="#5096F1"/>
</svg>
