<svg width="356" height="512" viewBox="0 0 356 512" fill="none" xmlns="http://www.w3.org/2000/svg">
<path d="M178 103.278C138.571 103.278 106.495 135.355 106.495 174.783C106.495 214.212 138.572 246.288 178 246.288C217.428 246.288 249.505 214.211 249.505 174.783C249.505 135.355 217.429 103.278 178 103.278Z" fill="#5096F1"/>
<path d="M178 0C80.1071 0 0.465088 79.642 0.465088 177.535C0.465088 217.577 28.5541 283.569 83.9511 373.678C124.453 439.558 165.528 495.158 165.938 495.711L178 512L190.062 495.711C190.472 495.158 231.547 439.558 272.049 373.678C327.446 283.569 355.535 217.577 355.535 177.535C355.535 79.642 275.893 0 178 0ZM178 276.306C122.02 276.306 76.4781 230.763 76.4781 174.784C76.4781 118.804 122.021 73.262 178 73.262C233.979 73.262 279.522 118.805 279.522 174.784C279.522 230.763 233.98 276.306 178 276.306Z" fill="#5096F1"/>
</svg>
